<svg width="289" height="68" viewBox="0 0 289 68" fill="none" xmlns="http://www.w3.org/2000/svg">
<path d="M32.1569 4.34315L2 34.5L32.1729 63.7445C33.6654 65.1911 35.6623 66 37.7407 66H254.723C256.823 66 258.839 65.1743 260.335 63.7012L284.298 40.1128C287.447 37.0131 287.487 31.9474 284.386 28.7988L260.35 4.38717C258.847 2.85997 256.793 2 254.65 2H37.8137C35.692 2 33.6571 2.84286 32.1569 4.34315Z" fill="black" fill-opacity="0.5"/>
<path d="M0.5 34.5H2M2 34.5L32.1569 4.34315C33.6571 2.84286 35.692 2 37.8137 2H254.65C256.793 2 258.847 2.85997 260.35 4.38717L284.386 28.7988C287.487 31.9474 287.447 37.0131 284.298 40.1128L260.335 63.7012C258.839 65.1743 256.823 66 254.723 66H37.7407C35.6623 66 33.6654 65.1911 32.1729 63.7445L2 34.5Z" stroke="white" stroke-width="4"/>
</svg>
