<svg width="707" height="133" viewBox="0 0 707 133" fill="none" xmlns="http://www.w3.org/2000/svg">
<path d="M62.4939 6.5061L2 67L62.4767 127.477C64.7322 129.732 67.793 130.997 70.9828 130.991L637.486 130.009C640.694 130.003 643.767 128.713 646.017 126.427L705.5 66L646.034 5.59051C643.774 3.29394 640.684 2.00315 637.462 2.00874L70.9584 2.9914C67.783 2.99691 64.7392 4.26076 62.4939 6.5061Z" fill="black" fill-opacity="0.5"/>
<path d="M2 67L62.4939 6.5061C64.7392 4.26076 67.783 2.99691 70.9584 2.9914L637.462 2.00874C640.684 2.00315 643.774 3.29394 646.034 5.59051L705.5 66M2 67L62.4767 127.477C64.7322 129.732 67.793 130.997 70.9828 130.991L637.486 130.009C640.694 130.003 643.767 128.713 646.017 126.427L705.5 66M2 67H0.5M705.5 66H707" stroke="white" stroke-width="4"/>
</svg>
