<svg width="192" height="192" viewBox="0 0 192 192" fill="none" xmlns="http://www.w3.org/2000/svg">
<path fill-rule="evenodd" clip-rule="evenodd" d="M89.9882 189.469C91.507 191.114 93.5321 192 96.1899 192C98.7213 192 100.746 191.114 102.265 189.469C103.657 187.823 104.417 185.419 104.417 182.254V168.712V153.651V140.108C104.417 136.944 103.657 134.539 102.265 132.894C100.873 131.248 98.8478 130.363 96.1899 130.363C93.5321 130.363 91.507 131.248 89.9882 132.894C88.4694 134.539 87.7101 136.944 87.7101 140.108V153.651V168.712V182.254C87.7101 185.419 88.4694 187.823 89.9882 189.469ZM59.1062 102.138C60.7515 100.62 61.6375 98.5945 61.6375 95.9366C61.6375 93.2787 60.8781 91.2537 59.1062 89.8614C57.4608 88.4692 55.0561 87.7098 51.8919 87.7098H38.3494H23.2881H9.74556C6.58142 87.7098 4.17667 88.4692 2.53131 89.8614C0.88596 91.2537 0 93.2787 0 95.9366C0 98.5945 0.88596 100.62 2.53131 102.138C4.17667 103.657 6.58142 104.416 9.74556 104.416H23.2881H38.3494H51.8919C55.0561 104.416 57.4608 103.657 59.1062 102.138ZM189.469 102.138C191.114 100.62 192 98.5945 192 95.9366C192 93.2787 191.241 91.2537 189.469 89.8614C187.823 88.4692 185.419 87.7098 182.254 87.7098H168.712H153.651H140.108C136.944 87.7098 134.539 88.4692 132.894 89.8614C131.248 91.2537 130.363 93.2787 130.363 95.9366C130.363 98.5945 131.248 100.62 132.894 102.138C134.539 103.657 136.944 104.416 140.108 104.416H153.651H168.712H182.254C185.419 104.416 187.823 103.657 189.469 102.138ZM96.19 61.6374C93.5321 61.6374 91.5071 60.7514 89.9883 59.1061C88.4695 57.4607 87.7101 55.056 87.7101 51.8918V38.3493V23.288V9.74546C87.7101 6.58132 88.4695 4.17657 89.9883 2.53121C91.5071 0.885874 93.5321 -9.74215e-05 96.19 -9.74215e-05C98.8479 -9.74215e-05 100.873 0.885874 102.265 2.53121C103.657 4.17657 104.417 6.58132 104.417 9.74546V23.288V38.3493V51.8918C104.417 55.056 103.657 57.4607 102.265 59.1061C100.746 60.7514 98.7213 61.6374 96.19 61.6374ZM71.7628 71.6361C69.8643 73.5346 67.8392 74.294 65.6876 74.294C63.4095 74.1674 61.2578 73.0283 58.9796 70.7501L49.3607 61.1311L38.7291 50.4996L29.2367 41.0072C26.9585 38.729 25.8195 36.5774 25.6929 34.2992C25.5663 32.021 26.4523 29.996 28.3508 28.2241C30.2492 26.3256 32.1477 25.5662 34.4259 25.6928C36.5775 25.8193 38.8557 27.085 41.1339 29.2366L50.6263 38.8556L61.2578 49.4871L70.8768 58.9795C73.155 61.2577 74.2941 63.4093 74.4207 65.6875C74.4207 67.7126 73.6613 69.7376 71.7628 71.6361ZM157.954 166.434C160.105 166.434 162.13 165.674 164.029 163.776C165.801 162.004 166.687 159.979 166.687 158.08C166.56 155.802 165.421 153.651 163.143 151.372L153.524 141.753L142.893 131.122L133.274 121.503C130.995 119.351 128.717 118.086 126.566 117.959C124.287 117.832 122.389 118.592 120.49 120.49C118.592 122.262 117.706 124.287 117.833 126.565C117.959 128.844 119.098 130.995 121.376 133.273L130.995 142.766L141.627 153.397L151.246 162.89C153.524 165.168 155.676 166.307 157.954 166.434ZM120.49 71.7625C118.592 69.8641 117.833 67.839 117.833 65.6874C117.959 63.4092 119.098 61.2576 121.376 58.9794L130.869 49.3604L141.5 38.7289L150.993 29.1099C153.271 26.8317 155.423 25.6926 157.701 25.5661C159.979 25.4395 162.004 26.3255 163.776 28.224C165.674 30.1224 166.434 32.0209 166.307 34.2991C166.181 36.4507 164.915 38.7289 162.763 41.0071L153.144 50.4995L142.513 61.131L132.894 70.6234C130.616 72.9016 128.464 74.0407 126.186 74.1673C124.287 74.4204 122.262 73.5345 120.49 71.7625ZM25.5663 157.827C25.5663 159.979 26.3257 162.004 28.2241 163.902C30.1226 165.801 32.1477 166.56 34.2993 166.434C36.5775 166.307 38.7291 165.168 41.0073 162.89L50.3731 153.398L61.0046 142.766L70.6236 133.147C72.7752 130.869 74.0409 128.591 74.1675 126.439C74.294 124.161 73.5346 122.262 71.6361 120.364C69.8642 118.465 67.8392 117.579 65.561 117.706C63.2828 117.833 61.1312 118.972 58.853 121.25L49.3606 130.869L38.7291 141.5L29.1101 151.119C26.8319 153.398 25.6928 155.549 25.5663 157.827Z" fill="white"/>
</svg>
