<?xml version="1.0" encoding="UTF-8" standalone="no"?>
<!DOCTYPE svg PUBLIC "-//W3C//DTD SVG 1.1//EN" "http://www.w3.org/Graphics/SVG/1.1/DTD/svg11.dtd">
<svg width="100%" height="100%" viewBox="0 0 767 121" version="1.1" xmlns="http://www.w3.org/2000/svg" xmlns:xlink="http://www.w3.org/1999/xlink" xml:space="preserve" xmlns:serif="http://www.serif.com/" style="fill-rule:evenodd;clip-rule:evenodd;stroke-linejoin:round;stroke-miterlimit:2;">
    <g transform="matrix(4.16667,0,0,4.16667,0,0)">
        <path d="M61.829,13.012L61.829,7.486L65.105,7.486L65.105,8.144L62.594,8.144L62.594,9.881L64.96,9.881L64.96,10.54L62.594,10.54L62.594,13.012L61.829,13.012Z" style="fill:rgb(35,31,32);fill-rule:nonzero;"/>
        <path d="M68.029,10.639C68.029,9.973 67.99,9.583 67.217,9.583C66.85,9.583 66.505,9.797 66.498,10.195L65.732,10.195C65.771,9.353 66.429,9.055 67.187,9.055C67.975,9.055 68.755,9.292 68.755,10.364L68.755,12.2C68.755,12.369 68.763,12.69 68.786,13.012L68.296,13.012C68.227,13.012 68.098,13.05 68.09,12.958C68.074,12.782 68.059,12.614 68.051,12.438L68.036,12.438C67.798,12.92 67.37,13.126 66.842,13.126C66.176,13.126 65.503,12.782 65.503,12.032C65.503,10.953 66.46,10.639 67.37,10.639L68.029,10.639ZM67.301,11.144C66.857,11.167 66.268,11.328 66.268,11.886C66.268,12.361 66.597,12.598 67.026,12.598C67.883,12.598 68.043,11.856 68.029,11.144L67.301,11.144Z" style="fill:rgb(35,31,32);fill-rule:nonzero;"/>
        <path d="M72.246,10.402C72.207,9.919 71.978,9.583 71.458,9.583C70.761,9.583 70.493,10.188 70.493,11.09C70.493,11.994 70.761,12.598 71.458,12.598C71.939,12.598 72.238,12.285 72.276,11.733L73.003,11.733C72.942,12.598 72.299,13.126 71.45,13.126C70.217,13.126 69.728,12.254 69.728,11.121C69.728,9.997 70.293,9.055 71.511,9.055C72.322,9.055 72.935,9.568 72.972,10.402L72.246,10.402Z" style="fill:rgb(35,31,32);fill-rule:nonzero;"/>
        <path d="M74.022,13.012L74.022,7.486L74.748,7.486L74.748,9.682L74.763,9.682C75.039,9.254 75.452,9.055 76.011,9.055C77.014,9.055 77.327,9.721 77.327,10.41L77.327,13.012L76.601,13.012L76.601,10.739C76.601,10.065 76.424,9.629 75.743,9.614C75.452,9.606 75.009,9.828 74.871,10.149C74.702,10.547 74.748,10.823 74.748,11.037L74.748,13.012L74.022,13.012Z" style="fill:rgb(35,31,32);fill-rule:nonzero;"/>
        <path d="M78.659,13.012L78.659,7.486L79.386,7.486L79.386,9.682L79.401,9.682C79.677,9.254 80.091,9.055 80.649,9.055C81.651,9.055 81.966,9.721 81.966,10.41L81.966,13.012L81.238,13.012L81.238,10.739C81.238,10.065 81.062,9.629 80.381,9.614C80.091,9.606 79.647,9.828 79.509,10.149C79.34,10.547 79.386,10.823 79.386,11.037L79.386,13.012L78.659,13.012Z" style="fill:rgb(35,31,32);fill-rule:nonzero;"/>
        <path d="M86.672,11.09C86.672,12.285 86.022,13.126 84.759,13.126C83.496,13.126 82.845,12.285 82.845,11.09C82.845,9.897 83.496,9.055 84.759,9.055C86.022,9.055 86.672,9.897 86.672,11.09ZM84.759,12.598C85.624,12.598 85.907,11.91 85.907,11.09C85.907,10.272 85.624,9.583 84.759,9.583C83.894,9.583 83.61,10.272 83.61,11.09C83.61,11.91 83.894,12.598 84.759,12.598Z" style="fill:rgb(35,31,32);fill-rule:nonzero;"/>
        <path d="M89.909,10.402C89.872,9.919 89.642,9.583 89.122,9.583C88.425,9.583 88.157,10.188 88.157,11.09C88.157,11.994 88.425,12.598 89.122,12.598C89.604,12.598 89.902,12.285 89.94,11.733L90.668,11.733C90.606,12.598 89.964,13.126 89.114,13.126C87.882,13.126 87.392,12.254 87.392,11.121C87.392,9.997 87.958,9.055 89.175,9.055C89.986,9.055 90.599,9.568 90.637,10.402L89.909,10.402Z" style="fill:rgb(35,31,32);fill-rule:nonzero;"/>
        <path d="M91.685,13.012L91.685,7.486L92.412,7.486L92.412,9.682L92.427,9.682C92.705,9.254 93.117,9.055 93.675,9.055C94.679,9.055 94.992,9.721 94.992,10.41L94.992,13.012L94.265,13.012L94.265,10.739C94.265,10.065 94.089,9.629 93.408,9.614C93.117,9.606 92.673,9.828 92.535,10.149C92.367,10.547 92.412,10.823 92.412,11.037L92.412,13.012L91.685,13.012Z" style="fill:rgb(35,31,32);fill-rule:nonzero;"/>
        <path d="M97.472,9.055C98.199,9.055 99.017,9.361 98.964,10.233L98.199,10.233C98.23,9.744 97.855,9.583 97.433,9.583C97.043,9.583 96.728,9.767 96.728,10.195C96.728,10.623 97.388,10.654 97.664,10.739C98.314,10.953 99.064,11.029 99.064,11.894C99.064,12.836 98.144,13.126 97.357,13.126C96.552,13.126 95.88,12.759 95.886,11.872L96.652,11.872C96.668,12.346 96.99,12.598 97.433,12.598C97.861,12.598 98.298,12.43 98.298,11.933C98.298,11.076 95.964,11.718 95.964,10.218C95.964,9.415 96.775,9.055 97.472,9.055Z" style="fill:rgb(35,31,32);fill-rule:nonzero;"/>
        <path d="M102.277,10.402C102.24,9.919 102.009,9.583 101.49,9.583C100.793,9.583 100.525,10.188 100.525,11.09C100.525,11.994 100.793,12.598 101.49,12.598C101.972,12.598 102.271,12.285 102.308,11.733L103.037,11.733C102.974,12.598 102.332,13.126 101.482,13.126C100.25,13.126 99.759,12.254 99.759,11.121C99.759,9.997 100.326,9.055 101.543,9.055C102.355,9.055 102.966,9.568 103.005,10.402L102.277,10.402Z" style="fill:rgb(35,31,32);fill-rule:nonzero;"/>
        <path d="M104.054,13.012L104.054,7.486L104.781,7.486L104.781,9.682L104.796,9.682C105.072,9.254 105.484,9.055 106.044,9.055C107.046,9.055 107.361,9.721 107.361,10.41L107.361,13.012L106.632,13.012L106.632,10.739C106.632,10.065 106.457,9.629 105.777,9.614C105.484,9.606 105.041,9.828 104.904,10.149C104.734,10.547 104.781,10.823 104.781,11.037L104.781,13.012L104.054,13.012Z" style="fill:rgb(35,31,32);fill-rule:nonzero;"/>
        <path d="M111.119,9.17L111.845,9.17L111.845,13.012L111.132,13.012L111.132,12.445L111.119,12.445C110.828,12.928 110.337,13.126 109.8,13.126C108.998,13.126 108.539,12.514 108.539,11.741L108.539,9.17L109.265,9.17L109.265,11.443C109.265,12.108 109.419,12.598 110.115,12.598C110.414,12.598 110.82,12.445 110.972,12.047C111.111,11.688 111.119,11.236 111.119,11.144L111.119,9.17Z" style="fill:rgb(35,31,32);fill-rule:nonzero;"/>
        <rect x="113.039" y="7.486" width="0.726" height="5.526" style="fill:rgb(35,31,32);fill-rule:nonzero;"/>
        <path d="M115.58,11.228C115.527,11.902 115.802,12.598 116.544,12.598C117.111,12.598 117.394,12.376 117.478,11.818L118.244,11.818C118.128,12.69 117.455,13.126 116.537,13.126C115.304,13.126 114.814,12.254 114.814,11.121C114.814,9.997 115.38,9.055 116.597,9.055C117.746,9.078 118.289,9.805 118.289,10.869L118.289,11.228L115.58,11.228ZM117.523,10.723C117.539,10.081 117.248,9.583 116.544,9.583C115.939,9.583 115.58,10.096 115.58,10.723L117.523,10.723Z" style="fill:rgb(35,31,32);fill-rule:nonzero;"/>
        <path d="M125.621,7.486L125.621,13.012L124.671,13.012L121.878,8.32L121.863,8.32L121.863,13.012L121.183,13.012L121.183,7.486L122.23,7.486L124.925,12.055L124.941,12.055L124.941,7.486L125.621,7.486Z" style="fill:rgb(35,31,32);fill-rule:nonzero;"/>
        <path d="M130.519,11.09C130.519,12.285 129.869,13.126 128.607,13.126C127.343,13.126 126.693,12.285 126.693,11.09C126.693,9.897 127.343,9.055 128.607,9.055C129.869,9.055 130.519,9.897 130.519,11.09ZM128.607,12.598C129.47,12.598 129.753,11.91 129.753,11.09C129.753,10.272 129.47,9.583 128.607,9.583C127.742,9.583 127.459,10.272 127.459,11.09C127.459,11.91 127.742,12.598 128.607,12.598Z" style="fill:rgb(35,31,32);fill-rule:nonzero;"/>
        <path d="M132.187,13.012L131.46,13.012L131.46,9.17L132.187,9.17L132.187,9.912L132.203,9.912C132.31,9.384 132.8,9.116 133.328,9.116C133.419,9.116 133.496,9.124 133.582,9.124L133.582,9.812C133.482,9.774 133.367,9.774 133.267,9.774C132.349,9.805 132.187,10.294 132.187,11.106L132.187,13.012Z" style="fill:rgb(35,31,32);fill-rule:nonzero;"/>
        <path d="M136.802,7.486L137.531,7.486L137.531,12.331C137.531,12.56 137.552,12.79 137.568,13.012L136.826,13.012L136.802,12.438L136.802,12.399L136.789,12.399C136.527,12.935 136.023,13.126 135.464,13.126C134.324,13.126 133.873,12.078 133.873,11.09C133.873,10.05 134.4,9.055 135.593,9.055C136.084,9.055 136.566,9.231 136.789,9.69L136.802,9.69L136.802,7.486ZM135.724,12.622C136.605,12.622 136.81,11.802 136.81,11.083C136.81,10.386 136.55,9.56 135.724,9.56C134.851,9.56 134.636,10.364 134.636,11.083C134.636,11.802 134.906,12.622 135.724,12.622Z" style="fill:rgb(35,31,32);fill-rule:nonzero;"/>
        <path d="M144.425,9.17L143.072,13.012L142.244,13.012L141.349,9.851L141.334,9.851L140.339,13.012L139.49,13.012L138.218,9.17L139.007,9.17L139.933,12.262L139.949,12.262L140.906,9.17L141.847,9.17L142.712,12.2L142.726,12.2L143.683,9.17L144.425,9.17Z" style="fill:rgb(35,31,32);fill-rule:nonzero;"/>
        <path d="M145.627,11.228C145.574,11.902 145.849,12.598 146.591,12.598C147.158,12.598 147.441,12.376 147.525,11.818L148.291,11.818C148.175,12.69 147.503,13.126 146.584,13.126C145.351,13.126 144.863,12.254 144.863,11.121C144.863,9.997 145.427,9.055 146.646,9.055C147.793,9.078 148.337,9.805 148.337,10.869L148.337,11.228L145.627,11.228ZM147.572,10.723C147.585,10.081 147.296,9.583 146.591,9.583C145.988,9.583 145.627,10.096 145.627,10.723L147.572,10.723Z" style="fill:rgb(35,31,32);fill-rule:nonzero;"/>
        <path d="M150.64,9.055C151.367,9.055 152.187,9.361 152.132,10.233L151.367,10.233C151.398,9.744 151.023,9.583 150.603,9.583C150.212,9.583 149.898,9.767 149.898,10.195C149.898,10.623 150.556,10.654 150.832,10.739C151.482,10.953 152.232,11.029 152.232,11.894C152.232,12.836 151.314,13.126 150.525,13.126C149.722,13.126 149.048,12.759 149.056,11.872L149.822,11.872C149.837,12.346 150.158,12.598 150.603,12.598C151.031,12.598 151.466,12.43 151.466,11.933C151.466,11.076 149.132,11.718 149.132,10.218C149.132,9.415 149.945,9.055 150.64,9.055Z" style="fill:rgb(35,31,32);fill-rule:nonzero;"/>
        <path d="M153.472,9.17L153.472,8.351L154.199,8.122L154.199,9.17L155.087,9.146L155.087,9.69L154.199,9.682L154.199,12.163C154.199,12.438 154.414,12.568 154.673,12.568C154.789,12.568 154.941,12.552 155.056,12.522L155.056,13.081C154.888,13.088 154.728,13.126 154.558,13.126C154.382,13.126 154.246,13.119 154.07,13.088C153.955,13.065 153.763,13.004 153.64,12.836C153.511,12.652 153.472,12.637 153.472,12.124L153.472,9.682L152.814,9.69L152.814,9.146L153.472,9.17Z" style="fill:rgb(35,31,32);fill-rule:nonzero;"/>
        <path d="M157.285,9.055C158.011,9.055 158.83,9.361 158.777,10.233L158.011,10.233C158.043,9.744 157.668,9.583 157.246,9.583C156.855,9.583 156.541,9.767 156.541,10.195C156.541,10.623 157.201,10.654 157.476,10.739C158.127,10.953 158.877,11.029 158.877,11.894C158.877,12.836 157.957,13.126 157.169,13.126C156.365,13.126 155.693,12.759 155.699,11.872L156.464,11.872C156.48,12.346 156.802,12.598 157.246,12.598C157.673,12.598 158.111,12.43 158.111,11.933C158.111,11.076 155.777,11.718 155.777,10.218C155.777,9.415 156.587,9.055 157.285,9.055Z" style="fill:rgb(35,31,32);fill-rule:nonzero;"/>
        <path d="M162.089,10.402C162.052,9.919 161.822,9.583 161.302,9.583C160.605,9.583 160.337,10.188 160.337,11.09C160.337,11.994 160.605,12.598 161.302,12.598C161.785,12.598 162.082,12.285 162.121,11.733L162.847,11.733C162.787,12.598 162.144,13.126 161.294,13.126C160.062,13.126 159.572,12.254 159.572,11.121C159.572,9.997 160.138,9.055 161.355,9.055C162.166,9.055 162.779,9.568 162.818,10.402L162.089,10.402Z" style="fill:rgb(35,31,32);fill-rule:nonzero;"/>
        <path d="M163.828,13.012L163.828,7.486L164.554,7.486L164.554,9.682L164.57,9.682C164.845,9.254 165.257,9.055 165.818,9.055C166.82,9.055 167.134,9.721 167.134,10.41L167.134,13.012L166.406,13.012L166.406,10.739C166.406,10.065 166.23,9.629 165.55,9.614C165.257,9.606 164.814,9.828 164.677,10.149C164.507,10.547 164.554,10.823 164.554,11.037L164.554,13.012L163.828,13.012Z" style="fill:rgb(35,31,32);fill-rule:nonzero;"/>
        <path d="M173.914,9.17L172.56,13.012L171.734,13.012L170.837,9.851L170.822,9.851L169.828,13.012L168.978,13.012L167.709,9.17L168.496,9.17L169.421,12.262L169.437,12.262L170.394,9.17L171.335,9.17L172.201,12.2L172.214,12.2L173.171,9.17L173.914,9.17Z" style="fill:rgb(35,31,32);fill-rule:nonzero;"/>
        <path d="M175.117,11.228C175.062,11.902 175.337,12.598 176.08,12.598C176.646,12.598 176.929,12.376 177.015,11.818L177.779,11.818C177.666,12.69 176.992,13.126 176.072,13.126C174.841,13.126 174.351,12.254 174.351,11.121C174.351,9.997 174.918,9.055 176.134,9.055C177.283,9.078 177.826,9.805 177.826,10.869L177.826,11.228L175.117,11.228ZM177.06,10.723C177.076,10.081 176.785,9.583 176.08,9.583C175.476,9.583 175.117,10.096 175.117,10.723L177.06,10.723Z" style="fill:rgb(35,31,32);fill-rule:nonzero;"/>
        <path d="M178.699,7.486L179.562,7.486L179.562,8.274L178.699,8.274L178.699,7.486ZM178.767,13.012L178.767,9.17L179.494,9.17L179.494,13.012L178.767,13.012Z" style="fill:rgb(35,31,32);fill-rule:nonzero;"/>
        <path d="M183.367,13.012L180.574,13.012L180.574,12.506L182.509,9.675L180.603,9.675L180.603,9.17L183.291,9.17L183.291,9.675L181.361,12.506L183.367,12.506L183.367,13.012Z" style="fill:rgb(35,31,32);fill-rule:nonzero;"/>
        <path d="M61.827,21.657L61.827,16.129L62.592,16.129L62.592,18.502L65.217,18.502L65.217,16.129L65.982,16.129L65.982,21.657L65.217,21.657L65.217,19.161L62.592,19.161L62.592,21.657L61.827,21.657Z" style="fill:rgb(35,31,32);fill-rule:nonzero;"/>
        <path d="M70.804,19.735C70.804,20.928 70.153,21.77 68.891,21.77C67.627,21.77 66.977,20.928 66.977,19.735C66.977,18.54 67.627,17.699 68.891,17.699C70.153,17.699 70.804,18.54 70.804,19.735ZM68.891,21.243C69.755,21.243 70.039,20.553 70.039,19.735C70.039,18.915 69.755,18.227 68.891,18.227C68.025,18.227 67.743,18.915 67.743,19.735C67.743,20.553 68.025,21.243 68.891,21.243Z" style="fill:rgb(35,31,32);fill-rule:nonzero;"/>
        <path d="M74.08,19.045C74.042,18.563 73.812,18.227 73.292,18.227C72.595,18.227 72.327,18.832 72.327,19.735C72.327,20.637 72.595,21.243 73.292,21.243C73.773,21.243 74.072,20.928 74.11,20.377L74.837,20.377C74.775,21.243 74.133,21.77 73.284,21.77C72.051,21.77 71.562,20.899 71.562,19.766C71.562,18.64 72.128,17.699 73.345,17.699C74.156,17.699 74.768,18.211 74.807,19.045L74.08,19.045Z" style="fill:rgb(35,31,32);fill-rule:nonzero;"/>
        <path d="M75.779,21.657L75.779,16.129L76.505,16.129L76.505,18.327L76.521,18.327C76.797,17.898 77.21,17.699 77.769,17.699C78.772,17.699 79.085,18.365 79.085,19.053L79.085,21.657L78.357,21.657L78.357,19.383C78.357,18.709 78.182,18.273 77.501,18.257C77.21,18.25 76.766,18.471 76.628,18.793C76.46,19.191 76.505,19.467 76.505,19.682L76.505,21.657L75.779,21.657Z" style="fill:rgb(35,31,32);fill-rule:nonzero;"/>
        <path d="M81.564,17.699C82.292,17.699 83.11,18.005 83.058,18.877L82.292,18.877C82.322,18.387 81.947,18.227 81.526,18.227C81.136,18.227 80.822,18.411 80.822,18.838C80.822,19.268 81.481,19.298 81.756,19.383C82.407,19.598 83.156,19.674 83.156,20.538C83.156,21.481 82.238,21.77 81.45,21.77C80.647,21.77 79.973,21.403 79.981,20.516L80.746,20.516C80.761,20.991 81.083,21.243 81.526,21.243C81.955,21.243 82.392,21.075 82.392,20.577C82.392,19.719 80.058,20.362 80.058,18.862C80.058,18.059 80.868,17.699 81.564,17.699Z" style="fill:rgb(35,31,32);fill-rule:nonzero;"/>
        <path d="M86.371,19.045C86.333,18.563 86.104,18.227 85.583,18.227C84.886,18.227 84.618,18.832 84.618,19.735C84.618,20.637 84.886,21.243 85.583,21.243C86.064,21.243 86.364,20.928 86.401,20.377L87.129,20.377C87.067,21.243 86.425,21.77 85.575,21.77C84.343,21.77 83.853,20.899 83.853,19.766C83.853,18.64 84.419,17.699 85.636,17.699C86.447,17.699 87.06,18.211 87.099,19.045L86.371,19.045Z" style="fill:rgb(35,31,32);fill-rule:nonzero;"/>
        <path d="M88.147,21.657L88.147,16.129L88.874,16.129L88.874,18.327L88.89,18.327C89.165,17.898 89.577,17.699 90.137,17.699C91.14,17.699 91.453,18.365 91.453,19.053L91.453,21.657L90.726,21.657L90.726,19.383C90.726,18.709 90.55,18.273 89.869,18.257C89.577,18.25 89.134,18.471 88.996,18.793C88.828,19.191 88.874,19.467 88.874,19.682L88.874,21.657L88.147,21.657Z" style="fill:rgb(35,31,32);fill-rule:nonzero;"/>
        <path d="M95.21,17.814L95.937,17.814L95.937,21.657L95.226,21.657L95.226,21.09L95.21,21.09C94.919,21.573 94.431,21.77 93.894,21.77C93.091,21.77 92.632,21.159 92.632,20.385L92.632,17.814L93.359,17.814L93.359,20.086C93.359,20.752 93.511,21.243 94.209,21.243C94.507,21.243 94.912,21.09 95.066,20.692C95.203,20.332 95.21,19.881 95.21,19.79L95.21,17.814Z" style="fill:rgb(35,31,32);fill-rule:nonzero;"/>
        <rect x="97.132" y="16.129" width="0.727" height="5.528" style="fill:rgb(35,31,32);fill-rule:nonzero;"/>
        <path d="M99.597,19.873C99.543,20.545 99.818,21.243 100.56,21.243C101.127,21.243 101.41,21.02 101.494,20.461L102.259,20.461C102.146,21.334 101.472,21.77 100.552,21.77C99.32,21.77 98.832,20.899 98.832,19.766C98.832,18.64 99.398,17.699 100.615,17.699C101.763,17.721 102.306,18.449 102.306,19.512L102.306,19.873L99.597,19.873ZM101.541,19.368C101.556,18.724 101.265,18.227 100.56,18.227C99.957,18.227 99.597,18.74 99.597,19.368L101.541,19.368Z" style="fill:rgb(35,31,32);fill-rule:nonzero;"/>
        <path d="M105.39,21.657L105.39,18.319L104.64,18.319L104.64,17.814L105.39,17.814L105.39,17.079C105.414,16.237 106.048,16.015 106.591,16.015C106.767,16.015 106.937,16.061 107.113,16.092L107.113,16.696C106.99,16.688 106.867,16.673 106.746,16.673C106.332,16.673 106.095,16.78 106.117,17.202L106.117,17.814L107.005,17.814L107.005,18.319L106.117,18.319L106.117,21.657L105.39,21.657Z" style="fill:rgb(35,31,32);fill-rule:nonzero;"/>
        <path d="M110.412,17.814L111.138,17.814L111.138,21.657L110.427,21.657L110.427,21.09L110.412,21.09C110.121,21.573 109.63,21.77 109.095,21.77C108.291,21.77 107.832,21.159 107.832,20.385L107.832,17.814L108.558,17.814L108.558,20.086C108.558,20.752 108.712,21.243 109.408,21.243C109.707,21.243 110.113,21.09 110.265,20.692C110.404,20.332 110.412,19.881 110.412,19.79L110.412,17.814ZM108.406,16.911L108.406,16.129L109.103,16.129L109.103,16.911L108.406,16.911ZM109.845,16.911L109.845,16.129L110.541,16.129L110.541,16.911L109.845,16.911Z" style="fill:rgb(35,31,32);fill-rule:nonzero;"/>
        <path d="M113.335,21.657L112.607,21.657L112.607,17.814L113.335,17.814L113.335,18.556L113.349,18.556C113.457,18.028 113.947,17.76 114.474,17.76C114.566,17.76 114.644,17.768 114.728,17.768L114.728,18.457C114.628,18.418 114.513,18.418 114.414,18.418C113.496,18.449 113.335,18.938 113.335,19.75L113.335,21.657Z" style="fill:rgb(35,31,32);fill-rule:nonzero;"/>
        <path d="M118.041,16.788L116.189,16.788L116.189,16.129L120.658,16.129L120.658,16.788L118.806,16.788L118.806,21.657L118.041,21.657L118.041,16.788Z" style="fill:rgb(35,31,32);fill-rule:nonzero;"/>
        <path d="M121.033,19.873C120.98,20.545 121.255,21.243 121.998,21.243C122.564,21.243 122.847,21.02 122.931,20.461L123.697,20.461C123.582,21.334 122.908,21.77 121.99,21.77C120.757,21.77 120.267,20.899 120.267,19.766C120.267,18.64 120.835,17.699 122.052,17.699C123.199,17.721 123.744,18.449 123.744,19.512L123.744,19.873L121.033,19.873ZM122.978,19.368C122.992,18.724 122.703,18.227 121.998,18.227C121.394,18.227 121.033,18.74 121.033,19.368L122.978,19.368Z" style="fill:rgb(35,31,32);fill-rule:nonzero;"/>
        <path d="M127.027,19.045C126.988,18.563 126.759,18.227 126.238,18.227C125.543,18.227 125.273,18.832 125.273,19.735C125.273,20.637 125.543,21.243 126.238,21.243C126.72,21.243 127.019,20.928 127.056,20.377L127.785,20.377C127.722,21.243 127.08,21.77 126.23,21.77C124.998,21.77 124.507,20.899 124.507,19.766C124.507,18.64 125.074,17.699 126.293,17.699C127.103,17.699 127.714,18.211 127.753,19.045L127.027,19.045Z" style="fill:rgb(35,31,32);fill-rule:nonzero;"/>
        <path d="M128.802,21.657L128.802,16.129L129.529,16.129L129.529,18.327L129.544,18.327C129.82,17.898 130.234,17.699 130.793,17.699C131.794,17.699 132.109,18.365 132.109,19.053L132.109,21.657L131.38,21.657L131.38,19.383C131.38,18.709 131.205,18.273 130.525,18.257C130.234,18.25 129.789,18.471 129.652,18.793C129.484,19.191 129.529,19.467 129.529,19.682L129.529,21.657L128.802,21.657Z" style="fill:rgb(35,31,32);fill-rule:nonzero;"/>
        <path d="M134.113,18.379L134.128,18.379C134.375,17.898 134.91,17.699 135.293,17.699C135.56,17.699 136.746,17.768 136.746,18.999L136.746,21.657L136.019,21.657L136.019,19.237C136.019,18.602 135.752,18.257 135.138,18.257C135.138,18.257 134.742,18.235 134.435,18.54C134.328,18.648 134.128,18.816 134.128,19.567L134.128,21.657L133.402,21.657L133.402,17.814L134.113,17.814L134.113,18.379Z" style="fill:rgb(35,31,32);fill-rule:nonzero;"/>
        <path d="M137.966,16.129L138.83,16.129L138.83,16.918L137.966,16.918L137.966,16.129ZM138.035,21.657L138.035,17.814L138.761,17.814L138.761,21.657L138.035,21.657Z" style="fill:rgb(35,31,32);fill-rule:nonzero;"/>
        <path d="M140.062,21.657L140.062,16.129L140.789,16.129L140.789,19.383L142.228,17.814L143.169,17.814L141.546,19.444L143.269,21.657L142.328,21.657L140.804,19.582L140.789,19.582L140.789,21.657L140.062,21.657Z" style="fill:rgb(35,31,32);fill-rule:nonzero;"/>
        <rect x="20.085" y="0.393" width="0.97" height="28.348" style="fill:rgb(35,31,32);fill-rule:nonzero;"/>
        <path d="M5.508,9.817C5.968,9.168 7.023,7.14 10.105,7.14C12.277,7.14 13.431,8.005 13.89,8.437C15.215,9.736 15.296,11.602 15.296,12.655L15.296,21.651L9.726,21.651L9.726,13.744C9.726,13.584 9.701,11.736 7.834,11.736C5.859,11.736 5.806,13.55 5.806,14.035L5.806,21.651L0.236,21.651L0.236,7.491L5.508,7.491L5.508,9.817Z" style="fill:rgb(35,31,32);fill-rule:nonzero;"/>
        <path d="M45.775,7.165C44.731,7.165 43.884,8.012 43.884,9.056C43.884,10.1 44.731,10.945 45.775,10.945C46.732,10.945 47.156,10.255 47.168,10.29C47.709,11.941 44.838,20.504 40.916,20.504C39.646,20.504 39.252,19.477 39.252,18.147C39.252,16.575 39.707,14.971 40.282,12.794C40.886,10.648 41.43,8.591 41.734,7.491L37.955,7.491C37.439,9.348 33.741,20.233 30.605,20.233C30.212,20.233 29.789,19.809 29.789,19.053C29.789,18.631 30.151,17.149 30.334,16.604L31.572,12.371C31.843,11.494 32.237,10.346 32.237,9.499C32.237,8.018 31.21,7.17 30.001,7.17C26.584,7.17 25.163,10.224 24.465,11.464L25.042,11.827C25.374,11.283 26.885,8.713 27.914,8.713C28.065,8.713 28.186,8.894 28.186,9.438C28.186,9.801 27.975,10.617 27.762,11.373L26.462,15.666C26.251,16.454 25.736,17.965 25.736,19.053C25.736,21.049 27.249,22.047 28.579,22.047C33.427,22.047 35.534,16.18 36.229,14.489L36.29,14.549C36.199,14.881 35.775,16.665 35.775,17.573C35.775,20.172 36.936,22.047 39.476,22.047C46.838,22.047 50.856,7.165 45.775,7.165Z" style="fill:rgb(35,31,32);fill-rule:nonzero;"/>
    </g>
</svg>
