<svg width="78" height="43" viewBox="0 0 78 43" fill="none" xmlns="http://www.w3.org/2000/svg">
<path fill-rule="evenodd" clip-rule="evenodd" d="M34.186 0.476074H32.634V42.5241H34.186V0.476074ZM9.31179 14.4532C9.37644 14.3688 9.44844 14.2685 9.52932 14.1559C10.3691 12.9864 12.1674 10.4823 16.6654 10.4823C20.1406 10.4823 21.9886 11.7654 22.723 12.4077C24.843 14.3331 24.9726 17.101 24.9726 18.6644V32.007H16.059V20.2797C16.059 20.0424 16.019 17.3012 13.0318 17.3012C9.87179 17.3012 9.78859 19.992 9.78859 20.7114V32.007H0.875V11.003H9.31179V14.4532ZM70.7128 13.3247C70.7128 11.7776 72.0664 10.5212 73.7368 10.5212C81.8664 10.5212 75.4392 32.5962 63.6584 32.5962C59.596 32.5962 57.7368 29.8149 57.7368 25.9583C57.7368 24.6114 58.4152 21.9666 58.5608 21.4727L58.4632 21.3837C58.4073 21.5099 58.3457 21.6518 58.2781 21.8074C57.0012 24.7468 53.5915 32.5962 46.2233 32.5962C44.0953 32.5962 41.6745 31.1158 41.6745 28.1551C41.6745 26.8475 42.2154 25.127 42.6011 23.9002C42.6915 23.6128 42.7733 23.3526 42.8377 23.131L44.9177 16.7631C45.2569 15.6417 45.5961 14.4313 45.5961 13.8929C45.5961 13.0859 45.4009 12.8174 45.1593 12.8174C43.5857 12.8174 41.3032 16.3067 40.6434 17.3154C40.6136 17.3611 40.5871 17.4016 40.5641 17.4365L39.6425 16.8966C39.7189 16.7706 39.8008 16.632 39.8888 16.4831C41.0843 14.4591 43.406 10.5287 48.4985 10.5287C50.4329 10.5287 52.0761 11.785 52.0761 13.9833C52.0761 15.1031 51.5766 16.5763 51.1599 17.8055C51.109 17.9555 51.0594 18.1018 51.0121 18.2435L49.0313 24.5209C48.7385 25.3293 48.1593 27.5291 48.1593 28.1551C48.1593 29.2765 48.8377 29.9039 49.4649 29.9039C54.4824 29.9039 60.3992 13.7579 61.2248 11.0033H67.2712C67.1164 11.525 66.9221 12.1913 66.698 12.9603C66.2204 14.5987 65.6068 16.7036 64.948 18.8709C64.888 19.0817 64.8288 19.2888 64.7705 19.4925C63.9363 22.4103 63.3016 24.6302 63.3016 26.8112C63.3016 28.784 63.9304 30.3074 65.9624 30.3074C72.2392 30.3074 76.8312 17.6056 75.9656 15.1567C75.9622 15.1475 75.9383 15.1718 75.8929 15.2181C75.6805 15.434 74.9979 16.1282 73.7368 16.1282C72.0664 16.1282 70.7128 14.8733 70.7128 13.3247Z" fill="#231F20"/>
</svg>
