<svg width="1476" height="836" viewBox="0 0 1476 836" fill="none" xmlns="http://www.w3.org/2000/svg">
<path d="M1371.37 2H104.627C100.384 2 96.3143 3.6857 93.3137 6.68629L4.34315 95.6569C2.84285 97.1571 2 99.192 2 101.314V731.373C2 735.616 3.6857 739.686 6.68629 742.686L93.3137 829.314C96.3143 832.314 100.384 834 104.627 834H1371.37C1375.62 834 1379.69 832.314 1382.69 829.314L1469.31 742.686C1472.31 739.686 1474 735.616 1474 731.373V101.314C1474 99.192 1473.16 97.1572 1471.66 95.6569L1382.69 6.68629C1379.69 3.68571 1375.62 2 1371.37 2Z" fill="black" fill-opacity="0.5" stroke="white" stroke-width="4"/>
</svg>
