<svg width="1920" height="196" viewBox="0 0 1920 196" fill="none" xmlns="http://www.w3.org/2000/svg">
<path d="M315.314 6.68629L224 98L315.314 189.314C318.314 192.314 322.384 194 326.627 194H1593.37C1597.62 194 1601.69 192.314 1604.69 189.314L1696 98L1604.69 6.68629C1601.69 3.68571 1597.62 2 1593.37 2H326.627C322.384 2 318.314 3.6857 315.314 6.68629Z" fill="black" fill-opacity="0.5"/>
<path d="M0 98H224M224 98L315.314 6.68629C318.314 3.6857 322.384 2 326.627 2H1593.37C1597.62 2 1601.69 3.68571 1604.69 6.68629L1696 98M224 98L315.314 189.314C318.314 192.314 322.384 194 326.627 194H1593.37C1597.62 194 1601.69 192.314 1604.69 189.314L1696 98M1696 98H1920" stroke="white" stroke-width="4"/>
</svg>
